<svg xmlns="http://www.w3.org/2000/svg" xmlns:xlink="http://www.w3.org/1999/xlink" width="820" height="510" viewBox="0 0 820 510">
  <defs>
    <clipPath id="clip-path">
      <rect id="Rectangle_498" data-name="Rectangle 498" width="434.022" height="344.873" fill="none"/>
    </clipPath>
  </defs>
  <g id="Group_1734" data-name="Group 1734" transform="translate(-128 -4789)">
    <rect id="Rectangle_333" data-name="Rectangle 333" width="820" height="510" rx="16" transform="translate(128 4789)" fill="#f8f8f8"/>
    <g id="Group_1723" data-name="Group 1723" transform="translate(322.989 4871.563)">
      <rect id="Rectangle_388" data-name="Rectangle 388" width="100.345" height="226.392" transform="translate(267.078 113.397)" fill="#00438b"/>
      <rect id="Rectangle_389" data-name="Rectangle 389" width="100.345" height="226.392" transform="translate(267.078 113.397)" fill="none" stroke="#000" stroke-miterlimit="10" stroke-width="3"/>
      <g id="Group_1722" data-name="Group 1722">
        <g id="Group_1721" data-name="Group 1721" clip-path="url(#clip-path)">
          <path id="Path_579" data-name="Path 579" d="M90.284,308.112H288.866V11.424S90.284-9.7,90.284,167.623Z" transform="translate(-19.235 -2.267)" fill="#005cbf"/>
          <path id="Path_580" data-name="Path 580" d="M90.284,308.112H288.866V11.424S90.284-9.7,90.284,167.623Z" transform="translate(-19.235 -2.267)" fill="#005cbf" stroke="#000" stroke-miterlimit="10" stroke-width="3"/>
          <rect id="Rectangle_390" data-name="Rectangle 390" width="58.983" height="30.044" transform="translate(170.781 307.143)" fill="#005cbf"/>
          <rect id="Rectangle_391" data-name="Rectangle 391" width="58.983" height="30.044" transform="translate(170.781 307.143)" fill="none" stroke="#000" stroke-miterlimit="10" stroke-width="3"/>
          <rect id="Rectangle_392" data-name="Rectangle 392" width="58.983" height="30.044" transform="translate(257.51 307.143)" fill="#00438b"/>
          <rect id="Rectangle_393" data-name="Rectangle 393" width="58.983" height="30.044" transform="translate(257.51 307.143)" fill="none" stroke="#000" stroke-miterlimit="10" stroke-width="3"/>
          <rect id="Rectangle_394" data-name="Rectangle 394" width="58.983" height="30.044" transform="translate(84.052 307.143)" fill="#005cbf"/>
          <rect id="Rectangle_395" data-name="Rectangle 395" width="58.983" height="30.044" transform="translate(84.052 307.143)" fill="none" stroke="#000" stroke-miterlimit="10" stroke-width="3"/>
          <rect id="Rectangle_396" data-name="Rectangle 396" width="7.807" height="33.943" transform="translate(153.107 305.845)" fill="#103552"/>
          <rect id="Rectangle_397" data-name="Rectangle 397" width="7.807" height="33.943" transform="translate(153.107 305.845)" fill="none" stroke="#000" stroke-miterlimit="10" stroke-width="3"/>
          <rect id="Rectangle_398" data-name="Rectangle 398" width="7.807" height="33.943" transform="translate(239.837 305.845)" fill="#005cbf"/>
          <rect id="Rectangle_399" data-name="Rectangle 399" width="7.807" height="33.943" transform="translate(239.837 305.845)" fill="none" stroke="#000" stroke-miterlimit="10" stroke-width="3"/>
          <rect id="Rectangle_400" data-name="Rectangle 400" width="27.114" height="27.079" transform="translate(325.48 138.97)" fill="#ffba5c"/>
          <rect id="Rectangle_401" data-name="Rectangle 401" width="27.114" height="27.079" transform="translate(325.48 138.97)" fill="none" stroke="#000" stroke-miterlimit="10" stroke-width="3"/>
          <rect id="Rectangle_402" data-name="Rectangle 402" width="27.114" height="27.079" transform="translate(325.48 177.576)" fill="#ffba5c"/>
          <rect id="Rectangle_403" data-name="Rectangle 403" width="27.114" height="27.079" transform="translate(325.48 177.576)" fill="none" stroke="#000" stroke-miterlimit="10" stroke-width="3"/>
          <rect id="Rectangle_404" data-name="Rectangle 404" width="27.114" height="27.079" transform="translate(325.48 216.182)" fill="#ffba5c"/>
          <rect id="Rectangle_405" data-name="Rectangle 405" width="27.114" height="27.079" transform="translate(325.48 216.182)" fill="none" stroke="#000" stroke-miterlimit="10" stroke-width="3"/>
          <rect id="Rectangle_406" data-name="Rectangle 406" width="27.114" height="27.079" transform="translate(325.48 254.787)" fill="#ffba5c"/>
          <rect id="Rectangle_407" data-name="Rectangle 407" width="27.114" height="27.079" transform="translate(325.48 254.787)" fill="none" stroke="#000" stroke-miterlimit="10" stroke-width="3"/>
          <rect id="Rectangle_408" data-name="Rectangle 408" width="27.114" height="27.079" transform="translate(286.515 138.97)" fill="#ffba5c"/>
          <rect id="Rectangle_409" data-name="Rectangle 409" width="27.114" height="27.079" transform="translate(286.515 138.97)" fill="none" stroke="#000" stroke-miterlimit="10" stroke-width="3"/>
          <rect id="Rectangle_410" data-name="Rectangle 410" width="27.114" height="27.079" transform="translate(286.515 177.576)" fill="#ffba5c"/>
          <rect id="Rectangle_411" data-name="Rectangle 411" width="27.114" height="27.079" transform="translate(286.515 177.576)" fill="none" stroke="#000" stroke-miterlimit="10" stroke-width="3"/>
          <rect id="Rectangle_412" data-name="Rectangle 412" width="27.114" height="27.079" transform="translate(286.515 216.182)" fill="#ffba5c"/>
          <rect id="Rectangle_413" data-name="Rectangle 413" width="27.114" height="27.079" transform="translate(286.515 216.182)" fill="none" stroke="#000" stroke-miterlimit="10" stroke-width="3"/>
          <rect id="Rectangle_414" data-name="Rectangle 414" width="27.114" height="27.079" transform="translate(286.515 254.787)" fill="#ffba5c"/>
          <rect id="Rectangle_415" data-name="Rectangle 415" width="27.114" height="27.079" transform="translate(286.515 254.787)" fill="none" stroke="#000" stroke-miterlimit="10" stroke-width="3"/>
          <path id="Path_581" data-name="Path 581" d="M469.636,33.676A32.176,32.176,0,1,1,437.46,1.5a32.176,32.176,0,0,1,32.176,32.176" transform="translate(-86.347 -0.32)" fill="#ffba5c"/>
          <circle id="Ellipse_84" data-name="Ellipse 84" cx="32.176" cy="32.176" r="32.176" transform="translate(318.938 1.18)" fill="none" stroke="#000" stroke-miterlimit="10" stroke-width="3"/>
          <path id="Path_582" data-name="Path 582" d="M529.261,73.179a11.535,11.535,0,0,0-13.507-10.093,23.21,23.21,0,0,0-43.563-8.394A17.085,17.085,0,0,0,453.232,71.7c0,.5.032.989.075,1.476Z" transform="translate(-96.562 -9.031)" fill="#005cbf"/>
          <path id="Path_583" data-name="Path 583" d="M529.261,73.179a11.535,11.535,0,0,0-13.507-10.093,23.21,23.21,0,0,0-43.563-8.394A17.085,17.085,0,0,0,453.232,71.7c0,.5.032.989.075,1.476Z" transform="translate(-96.562 -9.031)" fill="none" stroke="#000" stroke-miterlimit="10" stroke-width="3"/>
          <rect id="Rectangle_416" data-name="Rectangle 416" width="97.792" height="18.215" transform="translate(269.63 102.027)" fill="#fff"/>
          <rect id="Rectangle_417" data-name="Rectangle 417" width="97.792" height="18.215" transform="translate(269.63 102.027)" fill="none" stroke="#000" stroke-miterlimit="10" stroke-width="3"/>
          <rect id="Rectangle_418" data-name="Rectangle 418" width="41.808" height="15.613" transform="translate(99.739 117.786)" fill="#fff"/>
          <rect id="Rectangle_419" data-name="Rectangle 419" width="41.808" height="15.613" transform="translate(99.739 117.786)" fill="none" stroke="#000" stroke-miterlimit="10" stroke-width="3"/>
          <rect id="Rectangle_420" data-name="Rectangle 420" width="41.808" height="7.807" transform="translate(99.739 129.496)" fill="#ffbdac"/>
          <rect id="Rectangle_421" data-name="Rectangle 421" width="41.808" height="7.807" transform="translate(99.739 129.496)" fill="#d6d6d6" stroke="#000" stroke-miterlimit="10" stroke-width="3"/>
          <rect id="Rectangle_422" data-name="Rectangle 422" width="41.809" height="15.613" transform="translate(152.605 117.786)" fill="#fff"/>
          <rect id="Rectangle_423" data-name="Rectangle 423" width="41.809" height="15.613" transform="translate(152.605 117.786)" fill="none" stroke="#000" stroke-miterlimit="10" stroke-width="3"/>
          <rect id="Rectangle_424" data-name="Rectangle 424" width="41.811" height="7.807" transform="translate(152.604 129.496)" fill="#d6d6d6"/>
          <rect id="Rectangle_425" data-name="Rectangle 425" width="41.811" height="7.807" transform="translate(152.604 129.496)" fill="none" stroke="#000" stroke-miterlimit="10" stroke-width="3"/>
          <rect id="Rectangle_426" data-name="Rectangle 426" width="41.808" height="15.613" transform="translate(205.472 117.786)" fill="#fff"/>
          <rect id="Rectangle_427" data-name="Rectangle 427" width="41.808" height="15.613" transform="translate(205.472 117.786)" fill="none" stroke="#000" stroke-miterlimit="10" stroke-width="3"/>
          <rect id="Rectangle_428" data-name="Rectangle 428" width="41.808" height="7.807" transform="translate(205.471 129.496)" fill="#d6d6d6"/>
          <rect id="Rectangle_429" data-name="Rectangle 429" width="41.808" height="7.807" transform="translate(205.471 129.496)" fill="none" stroke="#000" stroke-miterlimit="10" stroke-width="3"/>
          <path id="Path_584" data-name="Path 584" d="M278.835,103.044H148.106S182.3,48.721,278.835,48.721Z" transform="translate(-31.554 -10.38)" fill="#fff"/>
          <path id="Path_585" data-name="Path 585" d="M278.835,103.044H148.106S182.3,48.721,278.835,48.721Z" transform="translate(-31.554 -10.38)" fill="none" stroke="#000" stroke-miterlimit="10" stroke-width="3"/>
          <rect id="Rectangle_430" data-name="Rectangle 430" width="131.412" height="7.807" transform="translate(115.867 93.399)" fill="#ffbdac"/>
          <path id="Path_592" data-name="Path 592" d="M0,0H131.412V7.807H0Z" transform="translate(115.867 93.399)" fill="#00438b" stroke="#000" stroke-width="3"/>
          <rect id="Rectangle_432" data-name="Rectangle 432" width="41.808" height="15.613" transform="translate(99.739 153.228)" fill="#fff"/>
          <rect id="Rectangle_433" data-name="Rectangle 433" width="41.808" height="15.613" transform="translate(99.739 153.228)" fill="none" stroke="#000" stroke-miterlimit="10" stroke-width="3"/>
          <rect id="Rectangle_434" data-name="Rectangle 434" width="41.808" height="7.807" transform="translate(99.739 164.937)" fill="#d6d6d6"/>
          <rect id="Rectangle_435" data-name="Rectangle 435" width="41.808" height="7.807" transform="translate(99.739 164.937)" fill="none" stroke="#000" stroke-miterlimit="10" stroke-width="3"/>
          <rect id="Rectangle_436" data-name="Rectangle 436" width="41.809" height="15.613" transform="translate(152.605 153.228)" fill="#fff"/>
          <rect id="Rectangle_437" data-name="Rectangle 437" width="41.809" height="15.613" transform="translate(152.605 153.228)" fill="none" stroke="#000" stroke-miterlimit="10" stroke-width="3"/>
          <rect id="Rectangle_438" data-name="Rectangle 438" width="41.811" height="7.807" transform="translate(152.604 164.937)" fill="#d6d6d6"/>
          <rect id="Rectangle_439" data-name="Rectangle 439" width="41.811" height="7.807" transform="translate(152.604 164.937)" fill="none" stroke="#000" stroke-miterlimit="10" stroke-width="3"/>
          <rect id="Rectangle_440" data-name="Rectangle 440" width="41.808" height="15.613" transform="translate(205.472 153.228)" fill="#fff"/>
          <rect id="Rectangle_441" data-name="Rectangle 441" width="41.808" height="15.613" transform="translate(205.472 153.228)" fill="none" stroke="#000" stroke-miterlimit="10" stroke-width="3"/>
          <rect id="Rectangle_442" data-name="Rectangle 442" width="41.808" height="7.807" transform="translate(205.471 164.937)" fill="#d6d6d6"/>
          <rect id="Rectangle_443" data-name="Rectangle 443" width="41.808" height="7.807" transform="translate(205.471 164.937)" fill="none" stroke="#000" stroke-miterlimit="10" stroke-width="3"/>
          <rect id="Rectangle_444" data-name="Rectangle 444" width="41.808" height="15.613" transform="translate(99.739 188.669)" fill="#fff"/>
          <rect id="Rectangle_445" data-name="Rectangle 445" width="41.808" height="15.613" transform="translate(99.739 188.669)" fill="none" stroke="#000" stroke-miterlimit="10" stroke-width="3"/>
          <rect id="Rectangle_446" data-name="Rectangle 446" width="41.808" height="7.807" transform="translate(99.739 200.379)" fill="#ffbdac"/>
          <rect id="Rectangle_447" data-name="Rectangle 447" width="41.808" height="7.807" transform="translate(99.739 200.379)" fill="#d6d6d6" stroke="#000" stroke-miterlimit="10" stroke-width="3"/>
          <rect id="Rectangle_448" data-name="Rectangle 448" width="41.809" height="15.613" transform="translate(152.605 188.669)" fill="#fff"/>
          <rect id="Rectangle_449" data-name="Rectangle 449" width="41.809" height="15.613" transform="translate(152.605 188.669)" fill="none" stroke="#000" stroke-miterlimit="10" stroke-width="3"/>
          <rect id="Rectangle_450" data-name="Rectangle 450" width="41.811" height="7.807" transform="translate(152.604 200.379)" fill="#d6d6d6"/>
          <rect id="Rectangle_451" data-name="Rectangle 451" width="41.811" height="7.807" transform="translate(152.604 200.379)" fill="none" stroke="#000" stroke-miterlimit="10" stroke-width="3"/>
          <rect id="Rectangle_452" data-name="Rectangle 452" width="41.808" height="15.613" transform="translate(205.472 188.669)" fill="#fff"/>
          <rect id="Rectangle_453" data-name="Rectangle 453" width="41.808" height="15.613" transform="translate(205.472 188.669)" fill="none" stroke="#000" stroke-miterlimit="10" stroke-width="3"/>
          <rect id="Rectangle_454" data-name="Rectangle 454" width="41.808" height="7.807" transform="translate(205.471 200.379)" fill="#d6d6d6"/>
          <rect id="Rectangle_455" data-name="Rectangle 455" width="41.808" height="7.807" transform="translate(205.471 200.379)" fill="none" stroke="#000" stroke-miterlimit="10" stroke-width="3"/>
          <rect id="Rectangle_456" data-name="Rectangle 456" width="41.808" height="15.613" transform="translate(99.739 224.111)" fill="#fff"/>
          <rect id="Rectangle_457" data-name="Rectangle 457" width="41.808" height="15.613" transform="translate(99.739 224.111)" fill="none" stroke="#000" stroke-miterlimit="10" stroke-width="3"/>
          <rect id="Rectangle_458" data-name="Rectangle 458" width="41.808" height="7.807" transform="translate(99.739 235.821)" fill="#d6d6d6"/>
          <rect id="Rectangle_459" data-name="Rectangle 459" width="41.808" height="7.807" transform="translate(99.739 235.821)" fill="none" stroke="#000" stroke-miterlimit="10" stroke-width="3"/>
          <rect id="Rectangle_460" data-name="Rectangle 460" width="41.809" height="15.613" transform="translate(152.605 224.111)" fill="#fff"/>
          <rect id="Rectangle_461" data-name="Rectangle 461" width="41.809" height="15.613" transform="translate(152.605 224.111)" fill="none" stroke="#000" stroke-miterlimit="10" stroke-width="3"/>
          <rect id="Rectangle_462" data-name="Rectangle 462" width="41.811" height="7.807" transform="translate(152.604 235.821)" fill="#d6d6d6"/>
          <rect id="Rectangle_463" data-name="Rectangle 463" width="41.811" height="7.807" transform="translate(152.604 235.821)" fill="none" stroke="#000" stroke-miterlimit="10" stroke-width="3"/>
          <rect id="Rectangle_464" data-name="Rectangle 464" width="41.808" height="15.613" transform="translate(205.472 224.111)" fill="#fff"/>
          <rect id="Rectangle_465" data-name="Rectangle 465" width="41.808" height="15.613" transform="translate(205.472 224.111)" fill="none" stroke="#000" stroke-miterlimit="10" stroke-width="3"/>
          <rect id="Rectangle_466" data-name="Rectangle 466" width="41.808" height="7.807" transform="translate(205.471 235.821)" fill="#d6d6d6"/>
          <rect id="Rectangle_467" data-name="Rectangle 467" width="41.808" height="7.807" transform="translate(205.471 235.821)" fill="none" stroke="#000" stroke-miterlimit="10" stroke-width="3"/>
          <rect id="Rectangle_468" data-name="Rectangle 468" width="41.808" height="15.613" transform="translate(99.739 259.552)" fill="#fff"/>
          <rect id="Rectangle_469" data-name="Rectangle 469" width="41.808" height="15.613" transform="translate(99.739 259.552)" fill="none" stroke="#000" stroke-miterlimit="10" stroke-width="3"/>
          <rect id="Rectangle_470" data-name="Rectangle 470" width="41.808" height="7.807" transform="translate(99.739 271.263)" fill="#d6d6d6"/>
          <rect id="Rectangle_471" data-name="Rectangle 471" width="41.808" height="7.807" transform="translate(99.739 271.263)" fill="none" stroke="#000" stroke-miterlimit="10" stroke-width="3"/>
          <rect id="Rectangle_472" data-name="Rectangle 472" width="41.809" height="15.613" transform="translate(152.605 259.552)" fill="#fff"/>
          <rect id="Rectangle_473" data-name="Rectangle 473" width="41.809" height="15.613" transform="translate(152.605 259.552)" fill="none" stroke="#000" stroke-miterlimit="10" stroke-width="3"/>
          <rect id="Rectangle_474" data-name="Rectangle 474" width="41.811" height="7.807" transform="translate(152.604 271.263)" fill="#d6d6d6"/>
          <rect id="Rectangle_475" data-name="Rectangle 475" width="41.811" height="7.807" transform="translate(152.604 271.263)" fill="none" stroke="#000" stroke-miterlimit="10" stroke-width="3"/>
          <rect id="Rectangle_476" data-name="Rectangle 476" width="41.808" height="15.613" transform="translate(205.472 259.552)" fill="#fff"/>
          <rect id="Rectangle_477" data-name="Rectangle 477" width="41.808" height="15.613" transform="translate(205.472 259.552)" fill="none" stroke="#000" stroke-miterlimit="10" stroke-width="3"/>
          <rect id="Rectangle_478" data-name="Rectangle 478" width="41.808" height="7.807" transform="translate(205.471 271.263)" fill="#d6d6d6"/>
          <rect id="Rectangle_479" data-name="Rectangle 479" width="41.808" height="7.807" transform="translate(205.471 271.263)" fill="none" stroke="#000" stroke-miterlimit="10" stroke-width="3"/>
          <rect id="Rectangle_480" data-name="Rectangle 480" width="7.807" height="30.038" transform="translate(196.367 305.848)" fill="#fff"/>
          <rect id="Rectangle_481" data-name="Rectangle 481" width="7.807" height="30.038" transform="translate(196.367 305.848)" fill="none" stroke="#000" stroke-miterlimit="10" stroke-width="3"/>
          <rect id="Rectangle_482" data-name="Rectangle 482" width="7.807" height="30.038" transform="translate(283.097 305.848)" fill="#fff"/>
          <rect id="Rectangle_483" data-name="Rectangle 483" width="7.807" height="30.038" transform="translate(283.097 305.848)" fill="none" stroke="#000" stroke-miterlimit="10" stroke-width="3"/>
          <rect id="Rectangle_486" data-name="Rectangle 486" width="7.807" height="30.038" transform="translate(326.568 305.848)" fill="#fff"/>
          <rect id="Rectangle_487" data-name="Rectangle 487" width="7.807" height="30.038" transform="translate(326.568 305.848)" fill="none" stroke="#000" stroke-miterlimit="10" stroke-width="3"/>
          <rect id="Rectangle_488" data-name="Rectangle 488" width="7.807" height="30.038" transform="translate(109.638 305.848)" fill="#fff"/>
          <rect id="Rectangle_489" data-name="Rectangle 489" width="7.807" height="30.038" transform="translate(109.638 305.848)" fill="none" stroke="#000" stroke-miterlimit="10" stroke-width="3"/>
          <rect id="Rectangle_490" data-name="Rectangle 490" width="7.807" height="30.038" transform="translate(66.379 305.848)" fill="#fff"/>
          <rect id="Rectangle_491" data-name="Rectangle 491" width="7.807" height="30.038" transform="translate(66.379 305.848)" fill="none" stroke="#000" stroke-miterlimit="10" stroke-width="3"/>
          <rect id="Rectangle_492" data-name="Rectangle 492" width="7.807" height="30.038" transform="translate(153.109 305.848)" fill="#fff"/>
          <rect id="Rectangle_493" data-name="Rectangle 493" width="7.807" height="30.038" transform="translate(153.109 305.848)" fill="none" stroke="#000" stroke-miterlimit="10" stroke-width="3"/>
          <rect id="Rectangle_494" data-name="Rectangle 494" width="287.544" height="7.807" transform="translate(55.906 301.943)" fill="#209b75"/>
          <rect id="Rectangle_495" data-name="Rectangle 495" width="287.544" height="7.807" transform="translate(55.906 301.943)" fill="#fff" stroke="#000" stroke-miterlimit="10" stroke-width="3"/>
          <rect id="Rectangle_496" data-name="Rectangle 496" width="331.533" height="7.807" transform="translate(11.914 335.886)" fill="#fff"/>
          <rect id="Rectangle_497" data-name="Rectangle 497" width="331.533" height="7.807" transform="translate(11.914 335.886)" fill="none" stroke="#000" stroke-miterlimit="10" stroke-width="3"/>
          <path id="Path_586" data-name="Path 586" d="M36.952,323.771c-.512.047-1.039.071-1.566.071s-1.055-.024-1.566-.071Z" transform="translate(-7.205 -68.98)" fill="#209b75"/>
          <path id="Path_587" data-name="Path 587" d="M36.952,323.771c-.512.047-1.039.071-1.566.071s-1.055-.024-1.566-.071Z" transform="translate(-7.205 -68.98)" fill="none" stroke="#000" stroke-miterlimit="10" stroke-width="3"/>
          <path id="Path_588" data-name="Path 588" d="M36.952,323.771c-.512.047-1.039.071-1.566.071s-1.055-.024-1.566-.071Z" transform="translate(-7.205 -68.98)" fill="#209b75"/>
          <path id="Path_589" data-name="Path 589" d="M36.952,323.771c-.512.047-1.039.071-1.566.071s-1.055-.024-1.566-.071Z" transform="translate(-7.205 -68.98)" fill="none" stroke="#000" stroke-miterlimit="10" stroke-width="3"/>
          <path id="Path_590" data-name="Path 590" d="M32.4,263.694v-6.783H24.6v6.783a26.986,26.986,0,0,0-12.363,48.248V317.4H24.6v73.218H32.4V317.4H44.759v-5.461A26.987,26.987,0,0,0,32.4,263.694m-2.337,45.832c-.512.047-1.039.071-1.566.071s-1.055-.024-1.566-.071a19.186,19.186,0,1,1,3.132,0" transform="translate(-0.32 -54.735)" fill="#fff"/>
          <path id="Path_591" data-name="Path 591" d="M32.4,263.694v-6.783H24.6v6.783a26.986,26.986,0,0,0-12.363,48.248V317.4H24.6v73.218H32.4V317.4H44.759v-5.461A26.987,26.987,0,0,0,32.4,263.694Zm-2.337,45.832c-.512.047-1.039.071-1.566.071s-1.055-.024-1.566-.071a19.186,19.186,0,1,1,3.132,0Z" transform="translate(-0.32 -54.735)" fill="none" stroke="#000" stroke-miterlimit="10" stroke-width="3"/>
        </g>
      </g>
    </g>
  </g>
</svg>
