<svg xmlns="http://www.w3.org/2000/svg" xmlns:xlink="http://www.w3.org/1999/xlink" width="820" height="510" viewBox="0 0 820 510">
  <defs>
    <clipPath id="clip-path">
      <rect id="Rectangle_381" data-name="Rectangle 381" width="351.73" height="389.057" fill="none"/>
    </clipPath>
    <clipPath id="clip-path-3">
      <rect id="Rectangle_378" data-name="Rectangle 378" width="259.458" height="260.257" fill="none"/>
    </clipPath>
  </defs>
  <g id="Group_1733" data-name="Group 1733" transform="translate(-128 -3651)">
    <rect id="Rectangle_332" data-name="Rectangle 332" width="820" height="510" rx="16" transform="translate(128 3651)" fill="#f8f8f8"/>
    <g id="Group_1717" data-name="Group 1717" transform="translate(364.135 3711.472)">
      <g id="Group_1716" data-name="Group 1716" clip-path="url(#clip-path)">
        <g id="Group_1715" data-name="Group 1715">
          <g id="Group_1714" data-name="Group 1714" clip-path="url(#clip-path)">
            <path id="Path_470" data-name="Path 470" d="M233.048,595.291a1.406,1.406,0,0,1-.024-2.812,177.059,177.059,0,0,0,18.857-1.345,1.406,1.406,0,0,1,.348,2.79,180.073,180.073,0,0,1-19.156,1.367Zm-19.042-.676c-.041,0-.084,0-.126-.006a178.067,178.067,0,0,1-19.011-2.739,1.405,1.405,0,0,1,.548-2.756,174.974,174.974,0,0,0,18.713,2.695,1.406,1.406,0,0,1-.123,2.807m56.8-4.079a1.406,1.406,0,0,1-.322-2.773,174.509,174.509,0,0,0,18.127-5.373,1.405,1.405,0,0,1,.939,2.65,176.769,176.769,0,0,1-18.42,5.458,1.369,1.369,0,0,1-.324.039m-94.121-3.384a1.422,1.422,0,0,1-.422-.064,177.977,177.977,0,0,1-17.978-6.781,1.405,1.405,0,0,1,1.127-2.575,174.754,174.754,0,0,0,17.695,6.673,1.406,1.406,0,0,1-.422,2.747" transform="translate(-56.215 -206.234)"/>
            <path id="Path_471" data-name="Path 471" d="M518.363,286.292a1.358,1.358,0,0,1-.183-.012,1.4,1.4,0,0,1-1.208-1.576,179.092,179.092,0,0,0,1.472-21.279,1.4,1.4,0,0,1,1.4-1.393h.013a1.405,1.405,0,0,1,1.388,1.419,181.911,181.911,0,0,1-1.5,21.617,1.4,1.4,0,0,1-1.387,1.224m.4-42.919a1.4,1.4,0,0,1-1.392-1.251,176.278,176.278,0,0,0-3.622-21.009,1.4,1.4,0,1,1,2.726-.647,179.137,179.137,0,0,1,3.683,21.345,1.4,1.4,0,0,1-1.238,1.552,1.29,1.29,0,0,1-.156.009m-9.847-41.752a1.4,1.4,0,0,1-1.314-.918A175.879,175.879,0,0,0,499.02,181.2a1.4,1.4,0,1,1,2.491-1.29,178.656,178.656,0,0,1,8.721,19.823,1.4,1.4,0,0,1-1.314,1.894M489.3,163.488a1.4,1.4,0,0,1-1.159-.614,176.977,176.977,0,0,0-13.012-16.869,1.4,1.4,0,0,1,2.11-1.852,179.838,179.838,0,0,1,13.218,17.138,1.4,1.4,0,0,1-1.157,2.2" transform="translate(-169.517 -51.298)"/>
            <path id="Path_472" data-name="Path 472" d="M2.52,216.264a1.4,1.4,0,0,1-1.362-1.744A178.536,178.536,0,0,1,6.7,196.313a1.4,1.4,0,1,1,2.633.964A175.306,175.306,0,0,0,3.879,215.2a1.4,1.4,0,0,1-1.359,1.068m12.888-35.431a1.393,1.393,0,0,1-.617-.144,1.409,1.409,0,0,1-.639-1.883A179.215,179.215,0,0,1,23.427,162.2a1.4,1.4,0,1,1,2.368,1.5,176.551,176.551,0,0,0-9.129,16.346,1.4,1.4,0,0,1-1.259.786m20.1-31.878a1.393,1.393,0,0,1-.869-.3,1.408,1.408,0,0,1-.227-1.975A180,180,0,0,1,46.97,132.408a1.4,1.4,0,0,1,2,1.97,177.462,177.462,0,0,0-12.365,14.045,1.4,1.4,0,0,1-1.1.532" transform="translate(-0.399 -47.125)"/>
            <g id="Group_1713" data-name="Group 1713" transform="translate(43.917 80.315)" opacity="0.25">
              <g id="Group_1712" data-name="Group 1712">
                <g id="Group_1711" data-name="Group 1711" clip-path="url(#clip-path-3)">
                  <path id="Path_473" data-name="Path 473" d="M327.763,255.044c0,71.868-58.081,130.128-129.729,130.128S68.305,326.913,68.305,255.044s58.082-130.128,129.729-130.128,129.729,58.261,129.729,130.128" transform="translate(-68.305 -124.916)" fill="#005cbf"/>
                </g>
              </g>
            </g>
            <path id="Path_474" data-name="Path 474" d="M186.019,452.083h45.3a3.384,3.384,0,0,0,3.379-3.39V323.026a3.385,3.385,0,0,0-3.379-3.39H117.094v16.478Z" transform="translate(-41.808 -114.124)" fill="#fff"/>
            <path id="Path_475" data-name="Path 475" d="M230.538,452.709h-45.3a1.406,1.406,0,0,1,0-2.812h45.3a1.983,1.983,0,0,0,1.978-1.984V322.245a1.983,1.983,0,0,0-1.978-1.984H117.718v15.071a1.4,1.4,0,1,1-2.8,0V318.855a1.4,1.4,0,0,1,1.4-1.405H230.538a4.793,4.793,0,0,1,4.78,4.8V447.913a4.793,4.793,0,0,1-4.78,4.8" transform="translate(-41.03 -113.344)" fill="#3c3575"/>
            <path id="Path_476" data-name="Path 476" d="M185.243,336.739a1.377,1.377,0,0,1-.326-.039l-68.925-16.477a1.405,1.405,0,0,1,.649-2.734l68.925,16.477a1.406,1.406,0,0,1-.323,2.773" transform="translate(-41.03 -113.344)" fill="#3c3575"/>
            <path id="Path_477" data-name="Path 477" d="M8.195,345.257H5.559a3.384,3.384,0,0,0-3.379,3.39v125.68a3.384,3.384,0,0,0,3.379,3.39H141.611a3.384,3.384,0,0,0,3.379-3.39V345.257Z" transform="translate(-0.778 -123.272)" fill="#ffba5c"/>
            <path id="Path_478" data-name="Path 478" d="M140.832,478.342H4.78a4.793,4.793,0,0,1-4.78-4.8V347.866a4.793,4.793,0,0,1,4.78-4.8H144.21a1.4,1.4,0,0,1,1.4,1.406v129.07a4.793,4.793,0,0,1-4.78,4.8M4.78,345.883A1.983,1.983,0,0,0,2.8,347.866V473.547a1.983,1.983,0,0,0,1.978,1.984H140.832a1.983,1.983,0,0,0,1.978-1.984V345.883Z" transform="translate(0 -122.492)" fill="#3c3575"/>
            <path id="Path_479" data-name="Path 479" d="M220.87,431.257a14.385,14.385,0,0,1-.939,4.7c-3.918,10.987-18.788,25.555-18.788,25.555s-14.871-14.568-18.788-25.555a14.368,14.368,0,0,1-.939-4.7,19.727,19.727,0,1,1,39.454,0" transform="translate(-64.774 -146.913)" fill="#005cbf"/>
            <path id="Path_480" data-name="Path 480" d="M200.365,462.133a1.394,1.394,0,0,1-.979-.4c-.617-.6-15.149-14.922-19.13-26.087a15.585,15.585,0,0,1-1.021-5.17,21.129,21.129,0,1,1,42.258,0,15.592,15.592,0,0,1-1.02,5.166c-3.982,11.169-18.513,25.487-19.13,26.091a1.393,1.393,0,0,1-.979.4m0-50.039a18.376,18.376,0,0,0-18.327,18.383,13.035,13.035,0,0,0,.858,4.227c3.188,8.943,14.124,20.6,17.468,24.029,3.345-3.43,14.278-15.086,17.468-24.033a13.037,13.037,0,0,0,.856-4.223,18.375,18.375,0,0,0-18.325-18.383" transform="translate(-63.995 -146.132)"/>
            <path id="Path_481" data-name="Path 481" d="M206.935,446.4a9.326,9.326,0,1,1,9.3-9.326,9.322,9.322,0,0,1-9.3,9.326" transform="translate(-70.566 -152.724)" fill="#fff"/>
            <path id="Path_482" data-name="Path 482" d="M206.157,447.022a10.732,10.732,0,1,1,10.7-10.732,10.728,10.728,0,0,1-10.7,10.732m0-18.652a7.92,7.92,0,1,0,7.894,7.92,7.917,7.917,0,0,0-7.894-7.92" transform="translate(-69.787 -151.943)"/>
            <path id="Path_483" data-name="Path 483" d="M57.727,305.051a17.069,17.069,0,0,1-1.115,5.577C51.961,323.673,34.3,340.97,34.3,340.97S16.647,323.673,12,310.628a17.069,17.069,0,0,1-1.115-5.577,23.423,23.423,0,1,1,46.846,0" transform="translate(-3.885 -100.528)" fill="#005cbf"/>
            <path id="Path_484" data-name="Path 484" d="M33.381,341.711a1.655,1.655,0,0,1-1.162-.474c-.733-.718-17.987-17.718-22.714-30.975a18.51,18.51,0,0,1-1.213-6.138,25.087,25.087,0,1,1,50.174,0,18.492,18.492,0,0,1-1.211,6.134c-4.728,13.262-21.981,30.262-22.714,30.979a1.655,1.655,0,0,1-1.162.474m0-59.414a21.818,21.818,0,0,0-21.76,21.827,15.484,15.484,0,0,0,1.019,5.019c3.786,10.617,16.77,24.457,20.741,28.531,3.972-4.074,16.953-17.914,20.741-28.536a15.474,15.474,0,0,0,1.017-5.014A21.818,21.818,0,0,0,33.381,282.3" transform="translate(-2.961 -99.601)"/>
            <path id="Path_485" data-name="Path 485" d="M41.182,323.027A11.073,11.073,0,1,1,52.22,311.953a11.069,11.069,0,0,1-11.038,11.074" transform="translate(-10.762 -107.428)" fill="#fff"/>
            <path id="Path_486" data-name="Path 486" d="M40.258,323.769a12.742,12.742,0,1,1,12.7-12.743,12.738,12.738,0,0,1-12.7,12.743m0-22.147a9.4,9.4,0,1,0,9.373,9.4,9.4,9.4,0,0,0-9.373-9.4" transform="translate(-9.838 -106.501)"/>
            <path id="Path_487" data-name="Path 487" d="M55.157,490.651a1.4,1.4,0,0,1-1.4-1.405v-20.19a26.969,26.969,0,0,1,26.891-26.985h3.6a23.739,23.739,0,0,0,10.461-2.4,1.4,1.4,0,0,1,1.224,2.529,26.509,26.509,0,0,1-11.684,2.684h-3.6a24.158,24.158,0,0,0-24.088,24.173v20.19a1.4,1.4,0,0,1-1.4,1.405" transform="translate(-19.193 -156.932)" fill="#3c3575"/>
            <path id="Path_488" data-name="Path 488" d="M133.53,405.9a1.392,1.392,0,0,1-.772-.233,1.409,1.409,0,0,1-.4-1.948,24,24,0,0,0,3.958-13.137c.074-21.165-.037-25.5-.114-26.15a1.4,1.4,0,0,1,2.7-.742c.13.4.308.942.216,26.9A26.8,26.8,0,0,1,134.7,405.27a1.4,1.4,0,0,1-1.17.63" transform="translate(-47.176 -129.508)" fill="#3c3575"/>
            <path id="Path_489" data-name="Path 489" d="M131.166,425.95a1.4,1.4,0,0,1-.991-.412L76.1,371.3a1.4,1.4,0,0,1,1.982-1.988l54.075,54.241a1.406,1.406,0,0,1-.991,2.4" transform="translate(-27.025 -131.713)" fill="#3c3575"/>
            <path id="Path_490" data-name="Path 490" d="M137.345,462.114a1.394,1.394,0,0,1-.991-.411L63.5,388.625a1.4,1.4,0,0,1,1.982-1.988l72.853,73.078a1.406,1.406,0,0,1-.991,2.4" transform="translate(-22.526 -137.9)" fill="#3c3575"/>
            <path id="Path_491" data-name="Path 491" d="M60.091,496.732H48.713a1.406,1.406,0,0,1,0-2.812H60.091a1.406,1.406,0,0,1,0,2.812" transform="translate(-16.892 -176.352)" fill="#3c3575"/>
            <path id="Path_492" data-name="Path 492" d="M91.638,496.732H80.259a1.406,1.406,0,0,1,0-2.812h11.38a1.406,1.406,0,0,1,0,2.812" transform="translate(-28.155 -176.352)" fill="#3c3575"/>
            <path id="Path_493" data-name="Path 493" d="M123.185,496.732h-11.38a1.406,1.406,0,0,1,0-2.812h11.38a1.406,1.406,0,0,1,0,2.812" transform="translate(-39.419 -176.352)" fill="#3c3575"/>
            <path id="Path_494" data-name="Path 494" d="M28.544,496.732H17.166a1.406,1.406,0,0,1,0-2.812H28.544a1.406,1.406,0,0,1,0,2.812" transform="translate(-5.628 -176.352)" fill="#3c3575"/>
            <rect id="Rectangle_379" data-name="Rectangle 379" width="100.745" height="146.966" transform="translate(231.391 202.703)" fill="#fff"/>
            <path id="Path_495" data-name="Path 495" d="M459.854,462.86H359.107a1.4,1.4,0,0,1-1.4-1.406V314.488a1.4,1.4,0,0,1,1.4-1.406H459.854a1.4,1.4,0,0,1,1.4,1.406V461.454a1.4,1.4,0,0,1-1.4,1.406m-99.345-2.812h97.943V315.894H360.509Z" transform="translate(-127.717 -111.784)" fill="#3c3575"/>
            <path id="Path_496" data-name="Path 496" d="M460.632,308.846v1.519H359.887v-1.519a18.6,18.6,0,0,1,18.564-18.622h63.616a18.6,18.6,0,0,1,18.565,18.622" transform="translate(-128.496 -103.623)" fill="#005cbf"/>
            <path id="Path_497" data-name="Path 497" d="M459.854,310.99H359.107a1.4,1.4,0,0,1-1.4-1.406v-1.519a20.019,20.019,0,0,1,19.966-20.027h63.617a20.019,20.019,0,0,1,19.966,20.027v1.519a1.4,1.4,0,0,1-1.4,1.406m-99.345-2.812h97.943v-.113a17.21,17.21,0,0,0-17.163-17.216H377.672a17.21,17.21,0,0,0-17.163,17.216Z" transform="translate(-127.717 -102.842)" fill="#3c3575"/>
            <path id="Path_498" data-name="Path 498" d="M359.886,539.083v-1.519H460.631v1.519a18.6,18.6,0,0,1-18.564,18.622H378.451a18.6,18.6,0,0,1-18.565-18.622" transform="translate(-128.495 -191.934)" fill="#005cbf"/>
            <path id="Path_499" data-name="Path 499" d="M441.289,558.331H377.672A20.02,20.02,0,0,1,357.706,538.3v-1.518a1.4,1.4,0,0,1,1.4-1.406H459.854a1.4,1.4,0,0,1,1.4,1.406V538.3a20.02,20.02,0,0,1-19.966,20.029m-80.78-20.141v.113a17.21,17.21,0,0,0,17.163,17.218h63.617A17.21,17.21,0,0,0,458.452,538.3v-.113Z" transform="translate(-127.717 -191.154)" fill="#3c3575"/>
            <path id="Path_500" data-name="Path 500" d="M428.493,363.79a6.261,6.261,0,1,0,6.262-6.28,6.271,6.271,0,0,0-6.262,6.28" transform="translate(-152.991 -127.647)" fill="#ffba5c"/>
            <path id="Path_501" data-name="Path 501" d="M433.977,370.7a7.686,7.686,0,1,1,7.663-7.686,7.683,7.683,0,0,1-7.663,7.686m0-12.561a4.875,4.875,0,1,0,4.859,4.875,4.873,4.873,0,0,0-4.859-4.875" transform="translate(-152.213 -126.866)"/>
            <path id="Path_502" data-name="Path 502" d="M484.43,395.956a6.261,6.261,0,1,0,6.261-6.28,6.271,6.271,0,0,0-6.261,6.28" transform="translate(-172.963 -139.132)" fill="#005cbf"/>
            <path id="Path_503" data-name="Path 503" d="M489.913,402.861a7.686,7.686,0,1,1,7.663-7.686,7.683,7.683,0,0,1-7.663,7.686m0-12.561a4.875,4.875,0,1,0,4.86,4.875,4.873,4.873,0,0,0-4.86-4.875" transform="translate(-172.185 -138.351)"/>
            <path id="Path_504" data-name="Path 504" d="M484.43,461.288a6.261,6.261,0,1,0,6.261-6.28,6.271,6.271,0,0,0-6.261,6.28" transform="translate(-172.963 -162.458)" fill="#ffba5c"/>
            <path id="Path_505" data-name="Path 505" d="M489.913,468.193a7.686,7.686,0,1,1,7.663-7.686,7.683,7.683,0,0,1-7.663,7.686m0-12.561a4.875,4.875,0,1,0,4.86,4.875,4.873,4.873,0,0,0-4.86-4.875" transform="translate(-172.185 -161.677)"/>
            <path id="Path_506" data-name="Path 506" d="M428.49,493.368a6.261,6.261,0,1,0,6.261-6.28,6.271,6.271,0,0,0-6.261,6.28" transform="translate(-152.99 -173.912)" fill="#005cbf"/>
            <path id="Path_507" data-name="Path 507" d="M433.972,500.275a7.686,7.686,0,1,1,7.663-7.686,7.684,7.684,0,0,1-7.663,7.686m0-12.561a4.875,4.875,0,1,0,4.86,4.875,4.873,4.873,0,0,0-4.86-4.875" transform="translate(-152.211 -173.132)"/>
            <path id="Path_508" data-name="Path 508" d="M372.556,461.288a6.261,6.261,0,1,0,6.261-6.28,6.271,6.271,0,0,0-6.261,6.28" transform="translate(-133.019 -162.458)" fill="#ffba5c"/>
            <path id="Path_509" data-name="Path 509" d="M378.04,468.193a7.686,7.686,0,1,1,7.663-7.686,7.683,7.683,0,0,1-7.663,7.686m0-12.561a4.875,4.875,0,1,0,4.86,4.875,4.873,4.873,0,0,0-4.86-4.875" transform="translate(-132.241 -161.677)"/>
            <path id="Path_510" data-name="Path 510" d="M372.556,395.956a6.261,6.261,0,1,0,6.261-6.28,6.271,6.271,0,0,0-6.261,6.28" transform="translate(-133.019 -139.132)" fill="#005cbf"/>
            <path id="Path_511" data-name="Path 511" d="M378.04,402.861a7.686,7.686,0,1,1,7.663-7.686,7.683,7.683,0,0,1-7.663,7.686m0-12.561a4.875,4.875,0,1,0,4.86,4.875,4.873,4.873,0,0,0-4.86-4.875" transform="translate(-132.241 -138.351)"/>
            <path id="Path_512" data-name="Path 512" d="M445.405,417.642a5.836,5.836,0,0,1,3.136-5.138,3.031,3.031,0,0,0,1.454-3.657,26.667,26.667,0,0,0-1.4-3.251,3.206,3.206,0,0,0-3.687-1.58,6.192,6.192,0,0,1-5.969-1.486,5.733,5.733,0,0,1-1.535-5.78,3.034,3.034,0,0,0-1.632-3.57,28.5,28.5,0,0,0-3.358-1.354,3.221,3.221,0,0,0-3.777,1.407,6.154,6.154,0,0,1-10.612,0,3.221,3.221,0,0,0-3.777-1.407,28.559,28.559,0,0,0-3.358,1.354,3.034,3.034,0,0,0-1.631,3.57,5.734,5.734,0,0,1-1.535,5.78,6.192,6.192,0,0,1-5.969,1.486,3.206,3.206,0,0,0-3.687,1.58,26.682,26.682,0,0,0-1.4,3.251,3.031,3.031,0,0,0,1.454,3.657,5.777,5.777,0,0,1,0,10.276,3.031,3.031,0,0,0-1.454,3.657,26.68,26.68,0,0,0,1.4,3.251,3.206,3.206,0,0,0,3.687,1.58,6.191,6.191,0,0,1,5.969,1.487,5.731,5.731,0,0,1,1.535,5.78,3.034,3.034,0,0,0,1.631,3.57,28.449,28.449,0,0,0,3.358,1.354,3.221,3.221,0,0,0,3.777-1.407,6.154,6.154,0,0,1,10.612,0,3.221,3.221,0,0,0,3.777,1.407,28.391,28.391,0,0,0,3.358-1.354,3.034,3.034,0,0,0,1.632-3.57,5.731,5.731,0,0,1,1.535-5.78,6.191,6.191,0,0,1,5.969-1.487,3.206,3.206,0,0,0,3.687-1.58,26.666,26.666,0,0,0,1.4-3.251,3.031,3.031,0,0,0-1.454-3.657,5.836,5.836,0,0,1-3.136-5.138" transform="translate(-141.571 -139.842)" fill="#ffba5c"/>
            <path id="Path_513" data-name="Path 513" d="M430.664,444.211a4.5,4.5,0,0,1-3.909-2.241,4.832,4.832,0,0,0-8.311,0,4.53,4.53,0,0,1-5.342,2.011,29.839,29.839,0,0,1-3.515-1.418,4.391,4.391,0,0,1-2.332-5.149,4.42,4.42,0,0,0-1.184-4.443,4.879,4.879,0,0,0-4.694-1.163,4.514,4.514,0,0,1-5.221-2.255,28.1,28.1,0,0,1-1.468-3.413,4.386,4.386,0,0,1,2.079-5.275,4.444,4.444,0,0,0,0-7.928,4.385,4.385,0,0,1-2.079-5.274,28.046,28.046,0,0,1,1.468-3.415,4.509,4.509,0,0,1,5.223-2.255,4.878,4.878,0,0,0,4.692-1.163,4.419,4.419,0,0,0,1.184-4.441,4.393,4.393,0,0,1,2.332-5.151,29.569,29.569,0,0,1,3.514-1.416,4.517,4.517,0,0,1,5.343,2.008,4.83,4.83,0,0,0,8.311,0,4.521,4.521,0,0,1,5.342-2.009,29.671,29.671,0,0,1,3.514,1.418,4.388,4.388,0,0,1,2.33,5.151,4.423,4.423,0,0,0,1.186,4.441,4.881,4.881,0,0,0,4.693,1.163,4.51,4.51,0,0,1,5.221,2.255,27.726,27.726,0,0,1,1.469,3.414,4.386,4.386,0,0,1-2.079,5.275,4.444,4.444,0,0,0,0,7.928,4.385,4.385,0,0,1,2.079,5.274,27.844,27.844,0,0,1-1.469,3.415,4.517,4.517,0,0,1-5.222,2.255,4.884,4.884,0,0,0-4.692,1.163,4.421,4.421,0,0,0-1.185,4.443,4.388,4.388,0,0,1-2.331,5.149,29.588,29.588,0,0,1-3.514,1.417,4.529,4.529,0,0,1-1.434.232M422.6,436.94a7.441,7.441,0,0,1,6.458,3.7,1.886,1.886,0,0,0,2.21.806,27.161,27.161,0,0,0,3.2-1.291,1.7,1.7,0,0,0,.93-1.989,7.084,7.084,0,0,1,1.886-7.118,7.548,7.548,0,0,1,7.245-1.812,1.866,1.866,0,0,0,2.152-.9,25.416,25.416,0,0,0,1.328-3.089,1.7,1.7,0,0,0-.83-2.038,7.11,7.11,0,0,1,0-12.623,1.7,1.7,0,0,0,.83-2.04,25.565,25.565,0,0,0-1.328-3.087,1.873,1.873,0,0,0-2.151-.9,7.541,7.541,0,0,1-7.245-1.812,7.082,7.082,0,0,1-1.886-7.116,1.7,1.7,0,0,0-.929-1.99,27.221,27.221,0,0,0-3.2-1.292,1.891,1.891,0,0,0-2.209.806,7.48,7.48,0,0,1-12.916,0,1.884,1.884,0,0,0-2.21-.806,26.972,26.972,0,0,0-3.2,1.291,1.706,1.706,0,0,0-.93,1.99,7.078,7.078,0,0,1-1.885,7.116,7.54,7.54,0,0,1-7.245,1.813,1.876,1.876,0,0,0-2.153.9,25.414,25.414,0,0,0-1.328,3.088,1.7,1.7,0,0,0,.829,2.039,7.109,7.109,0,0,1,0,12.623,1.7,1.7,0,0,0-.829,2.039,25.487,25.487,0,0,0,1.328,3.087,1.874,1.874,0,0,0,2.151.9,7.549,7.549,0,0,1,7.246,1.812,7.081,7.081,0,0,1,1.885,7.118,1.7,1.7,0,0,0,.93,1.989,27.27,27.27,0,0,0,3.2,1.292,1.9,1.9,0,0,0,2.21-.808,7.436,7.436,0,0,1,6.458-3.7" transform="translate(-140.836 -139.1)"/>
            <path id="Path_514" data-name="Path 514" d="M356.288,14.867c-21.546,0-39.012,10.6-39.012,23.67,0,6.212,3.948,11.861,10.4,16.083a6.31,6.31,0,0,1,2.467,7.418L325.13,75.945l28.408-13.156a6.481,6.481,0,0,1,2.734-.581h.015c21.546,0,39.013-10.6,39.013-23.67s-17.467-23.67-39.013-23.67" transform="translate(-113.282 -5.308)" fill="#fff"/>
            <path id="Path_515" data-name="Path 515" d="M324.352,76.57a1.406,1.406,0,0,1-1.318-1.884l5.013-13.906a4.882,4.882,0,0,0-1.915-5.763C319.016,50.36,315.1,44.23,315.1,37.757c0-13.827,18.13-25.077,40.414-25.077s40.414,11.25,40.414,25.077-18.13,25.076-40.414,25.076h0a5.088,5.088,0,0,0-2.158.451L324.939,76.44a1.385,1.385,0,0,1-.587.13M355.51,15.492c-20.739,0-37.611,9.988-37.611,22.265,0,5.491,3.467,10.785,9.763,14.906a7.687,7.687,0,0,1,3.021,9.073l-3.872,10.741,25.362-11.746a7.821,7.821,0,0,1,3.316-.71h.007c20.753,0,37.624-9.988,37.624-22.264S376.249,15.492,355.51,15.492" transform="translate(-112.503 -4.527)"/>
            <path id="Path_516" data-name="Path 516" d="M300.082,231.392v5.057a7.556,7.556,0,0,0,7.544,7.568h80.711a7.556,7.556,0,0,0,7.544-7.568v-5.057Z" transform="translate(-107.143 -82.617)" fill="#ffba5c"/>
            <path id="Path_517" data-name="Path 517" d="M387.56,244.641H306.848a8.969,8.969,0,0,1-8.945-8.972v-5.057a1.4,1.4,0,1,1,2.8,0v5.057a6.159,6.159,0,0,0,6.142,6.161H387.56a6.159,6.159,0,0,0,6.142-6.161v-5.057a1.4,1.4,0,1,1,2.8,0v5.057a8.969,8.969,0,0,1-8.945,8.972" transform="translate(-106.365 -81.837)"/>
            <path id="Path_518" data-name="Path 518" d="M300.082,196.783h95.8V142.028a7.568,7.568,0,0,0-7.568-7.568H307.65a7.568,7.568,0,0,0-7.568,7.568Z" transform="translate(-107.143 -48.008)" fill="#fff"/>
            <path id="Path_519" data-name="Path 519" d="M395.1,197.408H299.3A1.4,1.4,0,0,1,297.9,196V141.247a8.969,8.969,0,0,1,8.945-8.973H387.56a8.969,8.969,0,0,1,8.945,8.973V196a1.4,1.4,0,0,1-1.4,1.406m-94.4-2.812h93V141.247a6.159,6.159,0,0,0-6.142-6.162H306.849a6.159,6.159,0,0,0-6.142,6.162Z" transform="translate(-106.365 -47.228)"/>
            <path id="Path_520" data-name="Path 520" d="M268.457,41.489a1.425,1.425,0,0,1-.172-.01,1.4,1.4,0,0,1-1.22-1.567c.115-.946.906-1.176,1.484-1.344,6.763-1.969,14.171-6.994,11.051-19.752a22.709,22.709,0,0,0-2.88-7.361c-.451-.783-.964-1.67-1.555-2.852a1.4,1.4,0,1,1,2.508-1.259c.552,1.106,1.02,1.917,1.472,2.7a25.29,25.29,0,0,1,3.177,8.1c2.805,11.474-1.93,19.9-12.993,23.122l-.242.071a1.387,1.387,0,0,1-.629.15" transform="translate(-95.35 -2.344)"/>
            <path id="Path_521" data-name="Path 521" d="M291.178,13.8a8.063,8.063,0,0,1-9.694,5.211,7.8,7.8,0,0,1,4.5-14.936,8.1,8.1,0,0,1,5.2,9.725" transform="translate(-98.528 -1.335)" fill="#005cbf"/>
            <path id="Path_522" data-name="Path 522" d="M282.788,19.941a8.559,8.559,0,0,1-2.488-.368,9.217,9.217,0,0,1-1.681-16.928,9.09,9.09,0,0,1,6.991-.7,9.453,9.453,0,0,1,6.131,11.477,9.591,9.591,0,0,1-8.953,6.518m.17-15.578a6.4,6.4,0,0,0-1.847,12.519,6.226,6.226,0,0,0,4.88-.628,6.451,6.451,0,0,0,3.068-3.644A6.659,6.659,0,0,0,284.8,4.638a6.368,6.368,0,0,0-1.842-.274" transform="translate(-97.75 -0.553)"/>
            <path id="Path_523" data-name="Path 523" d="M113.9,40.653c-.034,0-.069,0-.105,0a1.386,1.386,0,0,1-.766-.3c-.056-.031-.13-.069-.219-.116-10.083-5.346-12.988-14.541-7.971-25.226l.491-1.05c1.255-2.677,1.3-2.783,1.919-3.34a12.136,12.136,0,0,0,1.519-1.726,1.4,1.4,0,1,1,2.209,1.731,14.491,14.491,0,0,1-1.847,2.08c-.19.173-.2.179-1.262,2.452l-.494,1.053c-5.581,11.89.587,18.277,6.746,21.542.527.278,1.247.661,1.177,1.6a1.4,1.4,0,0,1-1.4,1.3" transform="translate(-36.571 -2.981)"/>
            <path id="Path_524" data-name="Path 524" d="M96.629,12.7a8.129,8.129,0,1,0,5.429-10.162A8.124,8.124,0,0,0,96.629,12.7" transform="translate(-34.376 -0.78)" fill="#005cbf"/>
            <path id="Path_525" data-name="Path 525" d="M103.635,19.117a9.549,9.549,0,0,1-9.125-6.793h0a9.532,9.532,0,1,1,11.878,6.385,9.465,9.465,0,0,1-2.752.41M97.192,11.51a6.728,6.728,0,1,0,4.493-8.41,6.733,6.733,0,0,0-4.493,8.41" transform="translate(-33.598 0)"/>
            <path id="Path_526" data-name="Path 526" d="M221.184,52.709c2.925,24.168-12.777,44.134-51.913,44.134-38.982,0-54.509-19.922-51.913-44.134,2.879-26.858,15.064-44.134,51.913-44.134,35.827,0,49.034,20.344,51.913,44.134" transform="translate(-41.803 -3.062)" fill="#fff"/>
            <path id="Path_527" data-name="Path 527" d="M168.492,97.468c-20.081,0-35.479-5.342-44.529-15.45-7.022-7.841-10.058-18.3-8.777-30.241,2.265-21.133,10.373-45.39,53.306-45.39,31.278,0,49.712,15.689,53.3,45.371,1.429,11.805-1.482,22.2-8.418,30.05-9.049,10.244-24.57,15.659-44.887,15.659m0-88.269c-32.189,0-47.3,12.824-50.52,42.879-1.193,11.127,1.6,20.83,8.075,28.062,8.5,9.5,23.18,14.517,42.445,14.517,19.491,0,34.287-5.087,42.789-14.712,6.388-7.235,9.062-16.864,7.732-27.847-3.445-28.465-20.442-42.9-50.521-42.9" transform="translate(-41.024 -2.281)"/>
            <path id="Path_528" data-name="Path 528" d="M216.9,66.047c0,14.584-9.889,24.577-21.778,26.407-12.85,1.978-29.835,1.442-40.332,0-11.916-1.637-21.778-11.823-21.778-26.407s9.8-25.364,21.778-26.407a319.274,319.274,0,0,1,40.332,0c11.993.916,21.778,11.823,21.778,26.407" transform="translate(-47.493 -13.925)" fill="#005cbf"/>
            <path id="Path_529" data-name="Path 529" d="M174.984,94.367a163.289,163.289,0,0,1-21.16-1.3c-13.535-1.86-22.988-13.292-22.988-27.8,0-14.709,9.912-26.663,23.058-27.807,10.849-.946,30.363-.781,40.56,0,13.154,1,23.072,12.959,23.072,27.808,0,14.284-9.443,25.714-22.966,27.8a132.379,132.379,0,0,1-19.576,1.308m-1.65-54.739c-7.107,0-14.182.192-19.2.628-11.686,1.017-20.5,11.767-20.5,25.006,0,13.064,8.456,23.35,20.566,25.014,10.166,1.4,27,1.993,39.931,0,12.122-1.867,20.587-12.155,20.587-25.018,0-13.364-8.805-24.113-20.482-25.005-5.184-.4-13.065-.629-20.908-.629" transform="translate(-46.715 -13.142)"/>
            <path id="Path_530" data-name="Path 530" d="M167.314,71.412a6.476,6.476,0,1,1-6.476-6.5,6.486,6.486,0,0,1,6.476,6.5" transform="translate(-55.115 -23.178)" fill="#fff"/>
            <path id="Path_531" data-name="Path 531" d="M160.06,78.533a7.9,7.9,0,1,1,7.878-7.9,7.9,7.9,0,0,1-7.878,7.9m0-12.992a5.09,5.09,0,1,0,5.075,5.09,5.088,5.088,0,0,0-5.075-5.09" transform="translate(-54.337 -22.397)"/>
            <path id="Path_532" data-name="Path 532" d="M233.906,71.412a6.476,6.476,0,1,1-6.476-6.5,6.486,6.486,0,0,1,6.476,6.5" transform="translate(-78.891 -23.178)" fill="#fff"/>
            <path id="Path_533" data-name="Path 533" d="M226.652,78.533a7.9,7.9,0,1,1,7.877-7.9,7.9,7.9,0,0,1-7.877,7.9m0-12.992a5.09,5.09,0,1,0,5.075,5.09,5.088,5.088,0,0,0-5.075-5.09" transform="translate(-78.112 -22.397)"/>
            <path id="Path_534" data-name="Path 534" d="M190.639,107.079c-7.56,0-13.712-4.447-13.712-9.913a1.4,1.4,0,1,1,2.8,0c0,3.849,5,7.1,10.909,7.1s10.908-3.252,10.908-7.1a1.4,1.4,0,1,1,2.8,0c0,5.466-6.151,9.913-13.71,9.913" transform="translate(-63.171 -34.191)"/>
            <path id="Path_535" data-name="Path 535" d="M115.664,91.533H106.5A8.326,8.326,0,0,1,98.388,83V61.762a8.326,8.326,0,0,1,8.108-8.529h7.537a1.632,1.632,0,0,1,1.63,1.635Z" transform="translate(-35.129 -19.007)" fill="#ffba5c"/>
            <path id="Path_536" data-name="Path 536" d="M114.884,92.158h-9.167a9.74,9.74,0,0,1-9.51-9.935V60.981a9.74,9.74,0,0,1,9.51-9.935h7.538a3.039,3.039,0,0,1,3.03,3.041V90.752a1.4,1.4,0,0,1-1.4,1.406m-9.167-38.3a6.933,6.933,0,0,0-6.707,7.123V82.223a6.933,6.933,0,0,0,6.707,7.123h7.765V54.087a.228.228,0,0,0-.227-.23Z" transform="translate(-34.35 -18.226)"/>
            <path id="Path_537" data-name="Path 537" d="M271.857,91.533h9.167A8.327,8.327,0,0,0,289.133,83V61.762a8.327,8.327,0,0,0-8.108-8.529h-7.537a1.632,1.632,0,0,0-1.63,1.635Z" transform="translate(-97.065 -19.007)" fill="#ffba5c"/>
            <path id="Path_538" data-name="Path 538" d="M280.247,92.158h-9.169a1.4,1.4,0,0,1-1.4-1.406V54.087a3.04,3.04,0,0,1,3.031-3.041h7.539a9.74,9.74,0,0,1,9.51,9.935V82.223a9.74,9.74,0,0,1-9.51,9.935m-7.767-2.812h7.767a6.933,6.933,0,0,0,6.707-7.123V60.981a6.933,6.933,0,0,0-6.707-7.123h-7.539a.229.229,0,0,0-.228.23Z" transform="translate(-96.287 -18.226)"/>
            <path id="Path_539" data-name="Path 539" d="M159.592,126.778H120.333a7.8,7.8,0,0,1-7.619-7.946v-6.811a1.4,1.4,0,1,1,2.8,0v6.811a4.989,4.989,0,0,0,4.816,5.134h39.259a1.406,1.406,0,0,1,0,2.812" transform="translate(-40.244 -39.495)"/>
            <path id="Path_540" data-name="Path 540" d="M223.361,216.948v-36.92a24.409,24.409,0,0,0-24.371-24.446H144.633a24.409,24.409,0,0,0-24.371,24.446v36.92Z" transform="translate(-42.939 -55.549)" fill="#005cbf"/>
            <path id="Path_541" data-name="Path 541" d="M222.582,217.573a1.4,1.4,0,0,1-1.4-1.406v-36.92a23.031,23.031,0,0,0-22.968-23.041H143.855a23.032,23.032,0,0,0-22.97,23.041v36.92a1.4,1.4,0,1,1-2.8,0v-36.92A25.842,25.842,0,0,1,143.855,153.4h54.357a25.841,25.841,0,0,1,25.772,25.852v36.92a1.4,1.4,0,0,1-1.4,1.406" transform="translate(-42.161 -54.769)"/>
            <g id="Ellipse_85" data-name="Ellipse 85" transform="translate(221.865 27.528)" fill="#cecece" stroke="#000" stroke-width="2">
              <circle cx="5.5" cy="5.5" r="5.5" stroke="none"/>
              <circle cx="5.5" cy="5.5" r="4.5" fill="none"/>
            </g>
            <g id="Ellipse_86" data-name="Ellipse 86" transform="translate(237.865 27.528)" fill="#cecece" stroke="#000" stroke-width="2">
              <circle cx="5.5" cy="5.5" r="5.5" stroke="none"/>
              <circle cx="5.5" cy="5.5" r="4.5" fill="none"/>
            </g>
            <g id="Ellipse_87" data-name="Ellipse 87" transform="translate(253.865 27.528)" fill="#cecece" stroke="#000" stroke-width="2">
              <circle cx="5.5" cy="5.5" r="5.5" stroke="none"/>
              <circle cx="5.5" cy="5.5" r="4.5" fill="none"/>
            </g>
          </g>
        </g>
      </g>
    </g>
  </g>
</svg>
