<svg xmlns="http://www.w3.org/2000/svg" xmlns:xlink="http://www.w3.org/1999/xlink" width="817" height="510" viewBox="0 0 817 510">
  <defs>
    <clipPath id="clip-path">
      <rect id="Rectangle_387" data-name="Rectangle 387" width="434.022" height="330.764" fill="none"/>
    </clipPath>
  </defs>
  <g id="Group_1735" data-name="Group 1735" transform="translate(-131 -5927)">
    <rect id="Rectangle_334" data-name="Rectangle 334" width="817" height="510" rx="16" transform="translate(131 5927)" fill="#f8f8f8"/>
    <g id="Group_1719" data-name="Group 1719" transform="translate(322.989 6016.618)">
      <g id="Group_1718" data-name="Group 1718" clip-path="url(#clip-path)">
        <path id="Path_542" data-name="Path 542" d="M210.849,77.1A150.421,150.421,0,0,1,474,176.686c0,58.557-52.471,118.841-101.316,143.691" transform="translate(-48.788 -6.078)" fill="none" stroke="#000" stroke-linecap="round" stroke-miterlimit="10" stroke-width="3" stroke-dasharray="22"/>
        <path id="Path_543" data-name="Path 543" d="M346.906,380.681v11.406A25.612,25.612,0,0,1,321.3,417.7H106.83a25.612,25.612,0,0,1-25.61-25.61V381.411a25.642,25.642,0,0,0,25.395,22.005h214.8a25.641,25.641,0,0,0,25.495-22.735" transform="translate(-18.793 -88.086)" fill="#00438b"/>
        <path id="Path_544" data-name="Path 544" d="M346.906,380.681v11.406A25.612,25.612,0,0,1,321.3,417.7H106.83a25.612,25.612,0,0,1-25.61-25.61V381.411a25.642,25.642,0,0,0,25.395,22.005h214.8A25.641,25.641,0,0,0,346.906,380.681Z" transform="translate(-18.793 -88.086)" fill="none" stroke="#000" stroke-miterlimit="10" stroke-width="3"/>
        <path id="Path_545" data-name="Path 545" d="M346.906,169.149V325.807a25.641,25.641,0,0,1-25.495,22.735h-214.8A25.642,25.642,0,0,1,81.22,326.537V169.149a25.614,25.614,0,0,1,25.61-25.618H321.3a25.614,25.614,0,0,1,25.61,25.618" transform="translate(-18.793 -33.212)" fill="#005cbf"/>
        <path id="Path_546" data-name="Path 546" d="M346.906,169.149V325.807a25.641,25.641,0,0,1-25.495,22.735h-214.8A25.642,25.642,0,0,1,81.22,326.537V169.149a25.614,25.614,0,0,1,25.61-25.618H321.3A25.614,25.614,0,0,1,346.906,169.149Z" transform="translate(-18.793 -33.212)" fill="none" stroke="#000" stroke-miterlimit="10" stroke-width="3"/>
        <path id="Path_547" data-name="Path 547" d="M80.89,382.06v-5.119a25.351,25.351,0,0,0,.254,3.6" transform="translate(-18.717 -87.22)" fill="none" stroke="#000" stroke-miterlimit="10" stroke-width="3"/>
        <path id="Path_548" data-name="Path 548" d="M426.89,379.816a25.433,25.433,0,0,0,.161-2.875v5.119" transform="translate(-98.778 -87.22)" fill="none" stroke="#000" stroke-miterlimit="10" stroke-width="3"/>
        <path id="Path_549" data-name="Path 549" d="M103.208,266.02c63.111-30.746,74.782-92.811,76.634-122.486H106.829a25.613,25.613,0,0,0-25.613,25.612v83.489a135.877,135.877,0,0,0,21.992,13.385" transform="translate(-18.793 -33.212)" fill="#d08f37"/>
        <path id="Path_550" data-name="Path 550" d="M103.208,266.02c63.111-30.746,74.782-92.811,76.634-122.486H106.829a25.613,25.613,0,0,0-25.613,25.612v83.489A135.877,135.877,0,0,0,103.208,266.02Z" transform="translate(-18.793 -33.212)" fill="none" stroke="#000" stroke-miterlimit="10" stroke-width="3"/>
        <path id="Path_551" data-name="Path 551" d="M416.169,301.626h-56.35a15.635,15.635,0,0,1-15.635-15.634v-12.9a15.635,15.635,0,0,1,15.635-15.634h56.35Z" transform="translate(-79.641 -59.572)" fill="#209b75"/>
        <path id="Path_552" data-name="Path 552" d="M416.169,301.626h-56.35a15.635,15.635,0,0,1-15.635-15.634v-12.9a15.635,15.635,0,0,1,15.635-15.634h56.35Z" transform="translate(-79.641 -59.572)" fill="none" stroke="#000" stroke-miterlimit="10" stroke-width="3"/>
        <path id="Path_553" data-name="Path 553" d="M156.754,105.75C99.548,107.922,80,73.889,80,73.889S60.445,107.922,3.24,105.75c0,0-7.966,97.756,76.756,139.032,84.722-41.275,76.757-139.032,76.757-139.032" transform="translate(-0.704 -17.097)" fill="#fff"/>
        <path id="Path_554" data-name="Path 554" d="M156.754,105.75C99.548,107.922,80,73.889,80,73.889S60.445,107.922,3.24,105.75c0,0-7.966,97.756,76.756,139.032,84.722-41.275,76.757-139.032,76.757-139.032" transform="translate(-0.704 -17.097)" fill="#eff8ff"/>
        <path id="Path_555" data-name="Path 555" d="M80.175,245.507a1.222,1.222,0,0,1-1.068,0C-5.387,204.348,1.592,106.266,1.669,105.282a1.235,1.235,0,0,1,1.261-1.114c55.793,2.1,75.47-30.929,75.654-31.252a1.216,1.216,0,0,1,2.114,0c.177.307,18.693,31.352,70.5,31.352,1.683,0,3.4-.038,5.157-.1a1.22,1.22,0,0,1,1.261,1.114c.077.984,7.056,99.066-77.437,140.225" transform="translate(-0.347 -16.73)" fill="#ffba5c"/>
        <path id="Path_556" data-name="Path 556" d="M80.175,245.507a1.222,1.222,0,0,1-1.068,0C-5.387,204.348,1.592,106.266,1.669,105.282a1.235,1.235,0,0,1,1.261-1.114c55.793,2.1,75.47-30.929,75.654-31.252a1.216,1.216,0,0,1,2.114,0c.177.307,18.693,31.352,70.5,31.352,1.683,0,3.4-.038,5.157-.1a1.22,1.22,0,0,1,1.261,1.114C157.689,106.266,164.668,204.348,80.175,245.507Z" transform="translate(-0.347 -16.73)" fill="none" stroke="#000" stroke-miterlimit="10" stroke-width="3"/>
        <path id="Path_557" data-name="Path 557" d="M83.893,101.879c11.137,10.342,31.376,23.26,63.98,25.019.048-.883.088-1.738.118-2.553-32.674-1.733-52.946-14.673-64.1-25.027C72.752,109.663,52.5,122.587,19.885,124.34c.035.814.081,1.668.134,2.551,32.539-1.782,52.748-14.681,63.875-25.012" transform="translate(-4.601 -22.981)" fill="#fff"/>
        <path id="Path_558" data-name="Path 558" d="M148.84,124.026c-.876,23.75-8.939,82.31-64.725,112.924a1.228,1.228,0,0,1-.584.154,1.258,1.258,0,0,1-.592-.154C27.73,206.582,19.345,147.86,18.3,124.026a1.217,1.217,0,0,1,1.153-1.268c32.151-1.729,52.135-14.388,63.241-24.7a1.213,1.213,0,0,1,1.66,0c11.122,10.322,31.136,22.989,63.334,24.7a1.222,1.222,0,0,1,1.153,1.268" transform="translate(-4.234 -22.615)" fill="#fff"/>
        <path id="Path_559" data-name="Path 559" d="M148.84,124.026c-.876,23.75-8.939,82.31-64.725,112.924a1.228,1.228,0,0,1-.584.154,1.258,1.258,0,0,1-.592-.154C27.73,206.582,19.345,147.86,18.3,124.026a1.217,1.217,0,0,1,1.153-1.268c32.151-1.729,52.135-14.388,63.241-24.7a1.213,1.213,0,0,1,1.66,0c11.122,10.322,31.136,22.989,63.334,24.7A1.222,1.222,0,0,1,148.84,124.026Z" transform="translate(-4.234 -22.615)" fill="none" stroke="#000" stroke-miterlimit="10" stroke-width="3"/>
        <path id="Path_560" data-name="Path 560" d="M380.517,282.879a10.994,10.994,0,1,1-10.994-10.994,10.994,10.994,0,0,1,10.994,10.994" transform="translate(-82.96 -62.911)" fill="#f2f7fa"/>
        <path id="Path_561" data-name="Path 561" d="M369.155,294.725a12.213,12.213,0,1,1,12.214-12.213,12.225,12.225,0,0,1-12.214,12.213m0-21.989a9.776,9.776,0,1,0,9.777,9.776,9.786,9.786,0,0,0-9.777-9.776" transform="translate(-82.593 -62.544)"/>
        <rect id="Rectangle_382" data-name="Rectangle 382" width="82.602" height="34.925" transform="translate(108.759 252.877)" fill="#d1d1d1"/>
        <rect id="Rectangle_383" data-name="Rectangle 383" width="82.602" height="34.925" transform="translate(108.759 252.877)" fill="none" stroke="#000" stroke-miterlimit="10" stroke-width="3"/>
        <rect id="Rectangle_384" data-name="Rectangle 384" width="82.602" height="34.925" transform="translate(103.45 247.176)" fill="#eff8ff"/>
        <rect id="Rectangle_385" data-name="Rectangle 385" width="82.602" height="34.925" transform="translate(103.45 247.176)" fill="none" stroke="#000" stroke-miterlimit="10" stroke-width="3"/>
        <g id="Group_1726" data-name="Group 1726" transform="translate(45.561 36.561)">
          <path id="Path_562" data-name="Path 562" d="M433.379,21.029A17.082,17.082,0,1,1,416.3,3.947a17.082,17.082,0,0,1,17.082,17.082" transform="translate(-92.374 -0.913)" fill="#209b75"/>
          <circle id="Ellipse_81" data-name="Ellipse 81" cx="17.082" cy="17.082" r="17.082" transform="translate(306.84 3.034)" fill="none" stroke="#000" stroke-miterlimit="10" stroke-width="3"/>
        </g>
        <g id="Group_1724" data-name="Group 1724" transform="translate(199.337 -81.353)">
          <path id="Path_566" data-name="Path 566" d="M519.656,97.612h-5.834a1.3,1.3,0,0,1,0-2.6h5.834a1.3,1.3,0,1,1,0,2.6" transform="translate(-346.593 35.915)"/>
          <path id="Path_567" data-name="Path 567" d="M519.656,104.687h-5.834a1.3,1.3,0,0,1,0-2.6h5.834a1.3,1.3,0,1,1,0,2.6" transform="translate(-346.593 34.645)"/>
          <path id="Path_568" data-name="Path 568" d="M519.656,111.762h-5.834a1.3,1.3,0,0,1,0-2.6h5.834a1.3,1.3,0,1,1,0,2.6" transform="translate(-346.593 33.375)"/>
        </g>
        <g id="Group_1725" data-name="Group 1725">
          <path id="Path_563" data-name="Path 563" d="M488.089,116.106H445.951a5.323,5.323,0,0,1-5.323-5.323v-32.6a5.323,5.323,0,0,1,5.323-5.322h42.138a5.323,5.323,0,0,1,5.323,5.322v32.6a5.323,5.323,0,0,1-5.323,5.323" transform="translate(-387.727 59.124)" fill="#ffba5c" stroke="#000" stroke-width="3"/>
          <path id="Path_565" data-name="Path 565" d="M472.338,30.009h-.306a15.15,15.15,0,0,0-15.15,15.15V58.073H462.2V45.158a9.838,9.838,0,0,1,9.828-9.826h.3a9.838,9.838,0,0,1,9.828,9.826V58.073h5.323V45.159A15.15,15.15,0,0,0,472.338,30.009Z" transform="translate(-393.335 73.908)" fill="none" stroke="#000" stroke-miterlimit="10" stroke-width="3"/>
          <path id="Path_569" data-name="Path 569" d="M483.852,97.641a6.069,6.069,0,1,0-8.73,5.43v10.4h5.322v-10.4a6.049,6.049,0,0,0,3.408-5.43" transform="translate(-398.452 52.667)" fill="#f8f8f8"/>
          <path id="Path_570" data-name="Path 570" d="M483.852,97.641a6.069,6.069,0,1,0-8.73,5.43v10.4h5.322v-10.4A6.049,6.049,0,0,0,483.852,97.641Z" transform="translate(-398.452 52.667)" fill="none" stroke="#000" stroke-miterlimit="10" stroke-width="3"/>
        </g>
        <path id="Path_571" data-name="Path 571" d="M548.651,299.85a24.138,24.138,0,1,1-24.137-24.137,24.137,24.137,0,0,1,24.137,24.137" transform="translate(-115.782 -63.797)" fill="#f8f8f8"/>
        <path id="Path_572" data-name="Path 572" d="M548.651,299.85a24.138,24.138,0,1,1-24.137-24.137A24.137,24.137,0,0,1,548.651,299.85Z" transform="translate(-115.782 -63.797)" fill="none" stroke="#000" stroke-miterlimit="10" stroke-width="3"/>
        <path id="Path_573" data-name="Path 573" d="M544.672,301.564a18.447,18.447,0,1,1-18.447-18.447,18.447,18.447,0,0,1,18.447,18.447" transform="translate(-117.495 -65.51)" fill="#209b75"/>
        <circle id="Ellipse_82" data-name="Ellipse 82" cx="18.447" cy="18.447" r="18.447" transform="translate(390.285 217.607)" fill="none" stroke="#000" stroke-miterlimit="10" stroke-width="3"/>
        <path id="Path_574" data-name="Path 574" d="M533.734,316.633c-.9,0-1.8.008-2.7-.012a.658.658,0,0,1-.391-.251q-3.876-4.518-7.745-9.043a1.585,1.585,0,0,1-.374-1.128c.022-.369.008-.74,0-1.111a.174.174,0,0,1,.174-.174c.7,0,1.346.013,1.994,0a7.332,7.332,0,0,0,3.652-.906,3.977,3.977,0,0,0,1.955-2.844.174.174,0,0,0-.17-.207H522.05a.173.173,0,0,1-.142-.271c.44-.642.822-1.209,1.231-1.756.07-.094.3-.091.459-.092q2.847-.008,5.694,0h.152l.2-.444a5.05,5.05,0,0,0-.66-.676,5.219,5.219,0,0,0-3.174-1.088c-1.2-.035-2.41-.012-3.747-.009a.174.174,0,0,1-.144-.271c.434-.643.815-1.211,1.21-1.768.048-.068.208-.08.316-.08q6.858,0,13.714.018h0a.173.173,0,0,1,.138.27c-.4.6-.779,1.166-1.177,1.717-.062.087-.267.1-.406.1-.957.01-1.914.009-2.872.012h-.187a.173.173,0,0,0-.159.241c.258.612.5,1.2.77,1.769a.554.554,0,0,0,.426.2c1.022.021,2.046.015,3.069.022.121,0,.241.008.393.017a.174.174,0,0,1,.134.271c-.419.617-.794,1.178-1.191,1.723-.063.086-.264.1-.4.1-.7.008-1.395.005-2.114,0a.175.175,0,0,0-.168.132c-.908,3.656-3.6,4.942-7.034,5.356a.173.173,0,0,0-.123.271c.088.128.171.247.265.361q3.609,4.368,7.217,8.738a2.036,2.036,0,0,1,.244.41l-.255.407" transform="translate(-120.757 -68.143)" fill="#fff"/>
        <path id="Path_575" data-name="Path 575" d="M295.632,36.235A34.735,34.735,0,1,1,260.9,1.5a34.734,34.734,0,0,1,34.735,34.734" transform="translate(-52.332 -0.347)" fill="#f8f8f8"/>
        <path id="Path_576" data-name="Path 576" d="M295.632,36.235A34.735,34.735,0,1,1,260.9,1.5,34.734,34.734,0,0,1,295.632,36.235Z" transform="translate(-52.332 -0.347)" fill="none" stroke="#000" stroke-miterlimit="10" stroke-width="3"/>
        <path id="Path_577" data-name="Path 577" d="M290.282,38.539A27.081,27.081,0,1,1,263.2,11.458a27.081,27.081,0,0,1,27.081,27.081" transform="translate(-54.636 -2.651)" fill="#209b75"/>
        <circle id="Ellipse_83" data-name="Ellipse 83" cx="27.081" cy="27.081" r="27.081" transform="translate(181.484 8.807)" fill="none" stroke="#000" stroke-miterlimit="10" stroke-width="3"/>
        <path id="Path_578" data-name="Path 578" d="M274.166,60.385c-1.3,0-2.595.011-3.892-.017a.942.942,0,0,1-.563-.361q-5.578-6.5-11.146-13.014a2.278,2.278,0,0,1-.539-1.623c.031-.53.011-1.065,0-1.6a.249.249,0,0,1,.251-.251c1,0,1.936.018,2.87-.005a10.534,10.534,0,0,0,5.256-1.3,5.725,5.725,0,0,0,2.812-4.092.251.251,0,0,0-.245-.3H257.353a.249.249,0,0,1-.2-.39c.634-.923,1.184-1.739,1.772-2.526.1-.135.434-.131.659-.132q4.1-.012,8.193-.005h.22l.292-.638a7.3,7.3,0,0,0-.95-.974,7.518,7.518,0,0,0-4.569-1.566c-1.732-.049-3.467-.018-5.392-.013a.25.25,0,0,1-.207-.389c.625-.925,1.172-1.742,1.741-2.544.069-.1.3-.115.455-.115q9.867.006,19.735.025h0a.249.249,0,0,1,.2.389c-.58.862-1.12,1.678-1.693,2.47-.09.125-.384.139-.583.141-1.377.015-2.755.014-4.132.017h-.27a.249.249,0,0,0-.228.347c.37.879.716,1.723,1.108,2.546a.8.8,0,0,0,.613.29c1.472.03,2.944.022,4.416.031.174,0,.347.012.566.025a.25.25,0,0,1,.192.389c-.6.888-1.142,1.7-1.714,2.48-.09.123-.379.139-.576.141-1,.012-2.008.007-3.041.006a.251.251,0,0,0-.242.191c-1.308,5.26-5.188,7.112-10.123,7.708a.249.249,0,0,0-.177.389c.126.183.247.357.382.519q5.193,6.288,10.386,12.575a2.913,2.913,0,0,1,.35.59l-.367.586" transform="translate(-59.491 -6.601)" fill="#fff"/>
      </g>
    </g>
  </g>
</svg>
